<?xml version="1.0" encoding="UTF-8" standalone="no"?>
<svg
   xmlns:dc="http://purl.org/dc/elements/1.1/"
   xmlns:cc="http://creativecommons.org/ns#"
   xmlns:rdf="http://www.w3.org/1999/02/22-rdf-syntax-ns#"
   xmlns:svg="http://www.w3.org/2000/svg"
   xmlns="http://www.w3.org/2000/svg"
   xmlns:sodipodi="http://sodipodi.sourceforge.net/DTD/sodipodi-0.dtd"
   xmlns:inkscape="http://www.inkscape.org/namespaces/inkscape"
   width="538"
   height="600"
   viewBox="0 0 538 600"
   id="svg3043"
   version="1.1"
   inkscape:version="0.48.3.1 r9886"
   sodipodi:docname="highlight.svg"
   inkscape:export-filename="/home/gyaikhom/work/yaikhom/projects/phenodcc-qualitycontrol/src/main/webapp/resources/images/stateful/highlight.png"
   inkscape:export-xdpi="4.5"
   inkscape:export-ydpi="4.5">
  <metadata
     id="metadata3061">
    <rdf:RDF>
      <cc:Work
         rdf:about="">
        <dc:format>image/svg+xml</dc:format>
        <dc:type
           rdf:resource="http://purl.org/dc/dcmitype/StillImage" />
        <dc:title>Man and woman (heterosexual) icon</dc:title>
      </cc:Work>
    </rdf:RDF>
  </metadata>
  <defs
     id="defs3059" />
  <sodipodi:namedview
     pagecolor="#ffffff"
     bordercolor="#666666"
     borderopacity="1"
     objecttolerance="10"
     gridtolerance="10"
     guidetolerance="10"
     inkscape:pageopacity="0"
     inkscape:pageshadow="2"
     inkscape:window-width="1600"
     inkscape:window-height="1151"
     id="namedview3057"
     showgrid="false"
     inkscape:zoom="1.6166667"
     inkscape:cx="334.20449"
     inkscape:cy="374.2268"
     inkscape:window-x="0"
     inkscape:window-y="0"
     inkscape:window-maximized="1"
     inkscape:current-layer="svg3043" />
  <title
     id="title3045">Man and woman (heterosexual) icon</title>
  <rect
     style="opacity:0.98999999;fill:none;stroke:#000000;stroke-width:27.89999962;stroke-miterlimit:1.60000002;stroke-opacity:1;stroke-dasharray:none"
     id="rect3953-8-6"
     width="504.97278"
     height="343.89865"
     x="16.235256"
     y="62.174397"
     inkscape:export-filename="/home/gyaikhom/work/yaikhom/projects/phenodcc-imaging-display/src/main/webapp/images/specimen_on.png"
     inkscape:export-xdpi="5.5735397"
     inkscape:export-ydpi="5.5735397" />
  <path
     style="fill:#000000;fill-opacity:1;stroke:none"
     d="m 178.05095,213.80147 c 8.71862,-23.03569 25.20717,-31.30409 39.55616,-43.38314 2.93257,-2.94969 6.95027,-4.00732 6.21596,-9.29639 -0.21958,-5.7166 -2.53666,-12.28584 1.13019,-16.11375 3.27865,-3.78399 11.03865,-11.99503 14.69228,-11.77543 6.30114,-1.49004 6.87323,2.11507 4.52072,6.1976 -2.77796,2.5619 -4.43505,6.38708 -5.49197,10.74896 -0.87758,3.97258 -2.28575,8.5946 -2.41928,12.93122 3.06975,-3.61342 6.48184,-11.06042 10.73668,-15.00354 4.25483,-3.94315 7.89646,-3.88154 12.43194,-5.57783 4.53548,-1.69632 11.84279,-1.99336 13.56213,3.09878 1.71932,5.09213 4.26332,5.74017 2.82543,17.35327 -1.43789,11.6131 -9.07689,13.50153 -7.91124,15.49398 5.98315,7.1951 11.2671,10.99744 19.21299,19.83228 2.17633,3.54788 3.65688,4.66019 6.78108,6.1976 3.76869,2.64422 7.48414,3.70792 11.30173,6.1976 6.73181,3.28004 8.27917,4.50707 16.95265,12.3952 8.67351,7.88811 8.373,10.44611 12.43194,16.73349 1.14164,3.80613 5.06633,6.77678 5.65089,11.15567 2.40275,5.48553 1.94838,10.29173 2.82543,16.11373 0.98839,5.44825 0.11379,12.87649 1.13017,18.10235 0.76683,6.85228 1.25972,12.03706 1.69528,17.22394 9.65037,17.37868 33.22969,9.08854 36.16563,10.53589 12.74037,-0.95952 18.20096,-1.18602 27.12429,-4.95806 15.84093,-4.34506 21.40644,-8.88696 32.66946,-9.29636 13.57212,-1.1717 27.95058,-3.32921 41.71085,-1.23956 32.66011,11.40447 10.94916,6.87133 1.56508,7.43711 -8.41879,-0.85654 -15.69562,-2.29325 -24.07523,-0.61975 -7.23883,0.52537 -13.94395,1.14355 -20.22523,2.47905 -4.61853,1.47063 -11.63097,2.76664 -16.95266,4.95806 -5.7762,3.00348 -11.59479,4.50264 -18.0828,6.1976 -6.80381,0.53449 -13.9558,2.40669 -20.34323,3.09879 -17.77389,2.30307 -26.57401,2.67175 -41.81654,2.47904 -5.14253,-2.51398 -9.11394,1.42708 -14.12718,3.09879 -8.7895,1.8541 -16.44622,4.18362 -25.99407,4.95809 -9.21469,0.3447 -19.7323,-1.13727 -27.68929,1.85925 -5.06956,-0.17168 -10.28654,1.35074 -12.43194,4.33832 -2.91708,0.62717 -5.30116,4.30485 -7.09532,6.26408 -2.45987,-1.63909 -13.72312,0.62954 -13.81294,-2.30031 1.29875,-8.71133 -10.3184,5.39376 -5.65088,-6.44281 3.05254,-3.62912 6.16236,-6.99663 11.86684,-5.57781 4.76125,-1.82116 10.00594,0.90883 13.56211,-2.47904 3.681,-2.0796 12.88612,-2.04993 8.47634,-8.05688 -2.50338,-1.9314 -5.23478,-3.86857 -6.78105,-7.43711 -3.22332,-7.43879 -9.19426,-15.62158 -11.86687,-22.93109 -4.30765,-12.28528 -8.90621,-9.06382 -17.51773,-11.77541 -4.46755,-1.36524 -14.75768,-1.63303 -18.08281,-6.1976 -3.32514,-4.56459 -11.36704,-9.19715 -13.56213,-13.01496 -3.36139,-2.64317 -7.7876,0.66493 -10.17158,-3.71856 -0.86554,-6.11119 2.1189,-5.62971 1.69526,-12.89907 -1.00844,-6.9365 5.74139,-13.04037 8.28207,-7.99842 4.20571,3.49772 6.13357,11.09515 10.36583,12.22085 1.10914,2.90592 8.88031,-0.51095 7.31132,-4.722 -0.9617,-7.70828 -0.8471,-11.10103 -4.48586,-12.63124 -4.06799,-2.66092 -8.44873,-2.30885 -14.12721,-3.71857 -3.3255,2.52751 -16.42018,2.51034 -18.08031,-0.44326 -1.91287,-3.24288 -6.29827,-4.27 -5.65338,-10.09264 z"
     id="path3195-2-7"
     inkscape:connector-curvature="0"
     sodipodi:nodetypes="cccccccczzzzcccczccccccccccccccccccccccccccscczcccccccccc"
     inkscape:export-filename="/home/gyaikhom/work/yaikhom/projects/phenodcc-imaging-display/src/main/webapp/images/specimen_on.png"
     inkscape:export-xdpi="5.5735397"
     inkscape:export-ydpi="5.5735397" />
</svg>
